# xmcd
#
# Track frame offsets:
#   150
#   12953
#   27794
#   41236
#   60146
#   75894
#   91310
#   106369
#   120887
#   138258
#   158320
#   170884
#   187338
#   201126
#   213686
#   228709
#   242030
#   257135
#   271299
#   287800
#   303552
#   320351
#   336028
#
# Disc length: 4707 seconds
#
# Revision: 0
# Processed by: cddbd v1.5.1PL0 Copyright (c) Steve Scherf et al.
# Submitted via: Media_Universe 3.0
#
DISCID=3e126117
DTITLE=Tracy Lawrence - Tracy Lawrence and Lessons Learned
DYEAR=1900
DGENRE=Country
TTITLE0=Crawlin Again
TTITLE1=Life Dont Have To Be So Hard
TTITLE2=It's Got You All Over It
TTITLE3=Gettin Back Up
TTITLE4=It's Hard To Be An Outlaw
TTITLE5=Meant To Be
TTITLE6=That Was Us
TTITLE7=She Loved The Devil Out Of Me
TTITLE8=Whole Lot Of Lettin Go
TTITLE9=What A Memory
TTITLE10=God's Green Earth
TTITLE11=I Won All The Battles
TTITLE12=The Holes That He Dug
TTITLE13=Long Wet Kiss
TTITLE14=From The Inside Out
TTITLE15=Lessons Learned
TTITLE16=The Man I Was
TTITLE17=Lonely
TTITLE18=Just You And Me
TTITLE19=Steps
TTITLE20=From Here To Kingdom Come
TTITLE21=Up All Night
TTITLE22=Unforgiven
EXTD=
EXTT0=
EXTT1=
EXTT2=
EXTT3=
EXTT4=
EXTT5=
EXTT6=
EXTT7=
EXTT8=
EXTT9=
EXTT10=
EXTT11=
EXTT12=
EXTT13=
EXTT14=
EXTT15=
EXTT16=
EXTT17=
EXTT18=
EXTT19=
EXTT20=
EXTT21=
EXTT22=
PLAYORDER=
